<?xml version="1.0" encoding="utf-8"?>
<!-- Generator: Adobe Illustrator 24.0.1, SVG Export Plug-In . SVG Version: 6.00 Build 0)  -->
<svg version="1.1" id="Layer_1" xmlns="http://www.w3.org/2000/svg" xmlns:xlink="http://www.w3.org/1999/xlink" x="0px" y="0px"
	 viewBox="0 0 1200 1200" style="enable-background:new 0 0 1200 1200;" xml:space="preserve">
<style type="text/css">
	.st0{fill:url(#SVGID_1_);}
	.st1{fill:#FFE6C7;}
	.st2{fill:#754C24;}
	.st3{fill:#603813;}
</style>
<g id="XMLID_1_">
	<linearGradient id="SVGID_1_" gradientUnits="userSpaceOnUse" x1="94.7368" y1="600.3075" x2="913.6044" y2="600.3075">
		<stop  offset="0" style="stop-color:#FFF9EE"/>
		<stop  offset="0" style="stop-color:#FEF4E1"/>
		<stop  offset="0" style="stop-color:#FFF8EC"/>
		<stop  offset="0.236" style="stop-color:#FEF1D9"/>
		<stop  offset="1" style="stop-color:#FDEAC6"/>
	</linearGradient>
	<path class="st0" d="M705.69,340.8c13.82-25.8,22.3-59.34,21.55-102.84c-1.13-66.31-22.2-112.27-50.29-144.11
		c-49.98-56.68-122.18-68.58-143.48-70.93c-2.04-0.13-4.1-0.23-6.18-0.32l-0.02,0.15c57.13,3.83,106.1,37.13,131.52,84.66
		c11.94,22.28,18.7,47.7,18.7,74.67c0,20.44-3.89,39.99-10.95,57.96c-23.45,59.55-81.92,101.75-150.37,101.75
		c-1.72,0-3.45,0.02-5.15,0.05c-81.74,1.12-157.85,25.24-222.06,66.09C172.13,482.32,94.74,612.16,94.74,759.9
		c0,230.92,189.07,418.1,422.29,418.1c182.12,0,337.32-114.14,396.58-274.12v-0.13c-20.81,33.1-48.95,61.19-82.19,82.06
		c-124.02,99.36-282.7,123.12-401.98,63.22c-130.84-65.71-168.66-209.13-175.38-236.68c-1.94-9.72-36.81-199.06,97.16-314.54
		c3.51-3.03,7.04-5.94,10.61-8.7c63.82-49.84,133.66-60.19,165.52-62.92c0,0,34.29,3.03,74.47-7.68
		c26.55-7.06,55.67-20.12,79.17-44.03C690.26,365.05,698.66,353.93,705.69,340.8z"/>
	<path class="st1" d="M745.04,405.01c-0.37,0.72-0.78,1.44-1.2,2.16c-29.76,52.46-77.5,93.59-134.95,115.21
		c-2.96,0.99-5.91,2.02-8.83,3.09c-0.32,0.12-0.62,0.23-0.93,0.35c-98.36,37.04-168.26,131.25-168.26,241.61
		c0,142.7,116.84,258.38,260.97,258.38c51.33,0,99.2-14.67,139.56-40c-124.02,99.36-282.7,123.12-401.98,63.22
		c-130.84-65.71-168.66-209.13-175.38-236.68c-1.94-9.72-36.81-199.06,97.16-314.54c3.51-3.03,7.04-5.94,10.61-8.7
		c63.82-49.84,133.66-60.19,165.52-62.92c0,0,34.29,3.03,74.47-7.68c26.55-7.06,55.67-20.12,79.17-44.03
		c9.29-9.43,17.69-20.55,24.71-33.68c13.82-25.8,22.3-59.34,21.55-102.84c-1.13-66.31-22.2-112.27-50.29-144.11
		c-49.98-56.68-122.18-68.58-143.48-70.93c57.97,3.76,110.77,26.26,152.29,61.44c55.93,47.4,91.38,117.79,91.38,196.39
		C777.15,325.8,765.52,368.15,745.04,405.01z"/>
</g>
<g>
	<path class="st2" d="M597.57,729.54c-10.64,29.3-37.33,35.32-56.19,35.32c-20.47,0-43.95-10.03-43.95-51.17
		c0-43.75,14.25-100.54,67.63-100.54c18.66,0,34.92,7.42,34.92,26.89c0,10.64-3.81,18.46-14.05,18.46c-3.21,0-7.63-0.8-11.44-5.22
		c5.02-1.4,8.83-11.44,8.83-16.46c0-3.21-1-14.25-13.85-14.25c-24.68,0-40.54,50.97-40.54,86.69c0,26.29,4.82,37.53,26.49,37.53
		c15.45,0,30.1-6.42,37.53-19.27L597.57,729.54z"/>
	<path class="st2" d="M636.1,663.31l-2.21,10.03c7.23-5.62,15.25-10.03,23.68-10.03c9.03,0,14.45,5.22,14.45,12.84
		c0,7.02-5.22,15.65-15.05,15.65c-11.24,0-5.62-13.25-11.64-13.25s-9.23,2.21-13.85,6.42l-16.66,78.67h-28.9l21.27-100.34H636.1z"/>
	<path class="st2" d="M710.75,749.2c9.83,0,26.69-11.64,33.71-26.49h9.03c-11.44,20.67-30.7,40.94-56.59,40.94
		c-19.27,0-29.7-14.65-29.7-31.91c0-25.49,10.84-70.24,47.36-70.24c16.46,0,25.69,6.82,25.69,20.87c0,24.48-26.29,38.53-45.35,40.94
		c-0.4,3.21-0.6,6.22-0.6,8.63C694.3,745.19,702.93,749.2,710.75,749.2z M721.19,672.14c-11.24,0-20.47,22.68-24.68,41.54
		c18.46-0.2,31.51-16.05,31.71-30.3C728.21,679.17,727.21,672.14,721.19,672.14z"/>
	<path class="st2" d="M836.58,663.31l-14.45,68.23c-0.4,2.21-0.8,4.41-0.8,6.22c0,4.41,2.01,7.63,10.03,7.63
		c8.03,0,18.46-11.24,26.49-17.66h6.82c-9.23,9.23-31.91,35.92-47.56,35.92c-13.04,0-21.87-4.82-24.48-15.25
		c-6.02,8.23-15.05,16.46-27.29,16.46c-19.27,0-24.88-13.65-24.88-25.49c0-34.52,12.44-75.86,52.58-75.86
		c4.82,0,9.83,2.01,13.45,5.02l1.2-5.22H836.58z M767.55,733.95c0,12.04,6.62,14.25,11.64,14.25c4.62,0,9.03-4.42,12.84-10.03
		c0.2-2.01,0.6-4.21,1.2-6.62l11.24-53.18c-3.21-2.81-7.02-3.61-9.83-3.61C779.59,674.75,767.55,706.66,767.55,733.95z"/>
	<path class="st2" d="M973.85,731.54c-0.6,2.41-1,5.02-1,7.42c0,4.62,1.81,8.23,8.23,8.23c8.03,0,16.46-11.84,21.07-20.47h9.43
		c-9.23,10.84-27.29,36.92-42.94,36.92c-15.65,0-24.88-6.82-24.88-21.87c0-3.21,0.4-6.42,1.21-10.24l7.63-36.12
		c0.4-1.81,0.6-3.61,0.6-5.22c0-7.23-3.81-11.84-9.23-11.84c-4.41,0-7.83,1.2-11.64,3.61c0.6,2.41,1,4.62,1,7.02
		c0,1.4-0.2,2.81-0.4,4.21l-14.85,70.44h-29.1l14.45-68.23c0.4-1.81,0.6-3.61,0.6-5.22c0-7.23-3.81-11.84-9.23-11.84
		c-4.82,0-8.23,1.4-12.24,4.22l-17.26,81.07h-28.9l21.27-100.34h28.9l-2.21,10.64c8.03-5.82,17.26-10.64,25.89-10.64
		c7.43,0,15.45,5.42,19.87,13.24c8.83-7.02,19.47-13.24,29.3-13.24c11.04,0,23.08,11.64,23.08,25.29c0,1.61-0.2,3.01-0.4,4.62
		L973.85,731.54z"/>
	<path class="st2" d="M1036.06,663.31l-14.45,68.23c-0.4,2.21-0.8,4.41-0.8,6.22c0,4.41,2.01,7.63,10.03,7.63
		c8.03,0,18.46-11.24,26.49-17.66h6.82c-9.23,9.23-31.91,35.92-47.56,35.92c-15.45,0-25.08-6.82-25.08-21.87
		c0-3.01,0.4-6.42,1.2-10.24l14.45-68.23H1036.06z M1026.83,620.77c8.83,0,16.05,7.23,16.05,16.05s-7.23,15.85-16.05,15.85
		c-8.83,0-15.85-7.02-15.85-15.85S1018,620.77,1026.83,620.77z"/>
	<path class="st2" d="M1043.09,731.74c0-25.49,10.84-70.24,47.36-70.24c16.46,0,25.69,6.82,25.69,20.87
		c0,24.48-26.29,38.53-45.35,40.94c-0.4,3.21-0.6,6.22-0.6,8.63c0,13.24,6.62,17.26,14.45,17.26c9.43,0,17.46-5.42,25.69-12.84
		c0,21.67-17.46,27.29-37.53,27.29C1053.52,763.65,1043.09,749,1043.09,731.74z M1097.07,672.14c-11.24,0-20.47,22.68-24.68,41.54
		c18.46-0.2,31.51-16.05,31.71-30.3C1104.09,679.17,1103.09,672.14,1097.07,672.14z"/>
</g>
<g>
	<path class="st3" d="M562.22,782.6h5.34v27.48c0,10.94-5.36,14.3-12.43,14.3c-1.99,0-4.37-0.42-5.69-0.96l0.78-4.33
		c1.11,0.42,2.68,0.78,4.5,0.78c4.73,0,7.51-2.16,7.51-10.22V782.6z"/>
	<path class="st3" d="M592.59,823.72l-0.47-3.73h-0.16c-1.62,2.3-4.8,4.4-9.03,4.4c-5.96,0-9.01-4.23-9.01-8.47
		c0-7.15,6.33-11.07,17.73-10.99v-0.63c0-2.4-0.67-6.84-6.72-6.81c-2.75,0-5.62,0.82-7.69,2.2l-1.22-3.57
		c2.44-1.58,6.02-2.59,9.74-2.59c9.02,0,11.22,6.17,11.22,12.08v11.04c0,2.52,0.12,5.03,0.45,7.06H592.59z M591.75,808.66
		c-5.81-0.12-12.45,0.92-12.45,6.63c0,3.52,2.32,5.14,5.01,5.14c3.88,0,6.33-2.45,7.19-4.94c0.19-0.57,0.25-1.18,0.25-1.69V808.66z"
		/>
	<path class="st3" d="M607.21,794.22l5.79,16.54c0.99,2.73,1.76,5.17,2.42,7.62h0.16c0.68-2.45,1.52-4.9,2.47-7.62l5.77-16.54h5.61
		l-11.61,29.5h-5.12l-11.23-29.5H607.21z"/>
	<path class="st3" d="M650.6,823.72l-0.47-3.73h-0.16c-1.62,2.3-4.8,4.4-9.03,4.4c-5.96,0-9.01-4.23-9.01-8.47
		c0-7.15,6.33-11.07,17.73-10.99v-0.63c0-2.4-0.67-6.84-6.72-6.81c-2.75,0-5.62,0.82-7.69,2.2l-1.22-3.57
		c2.44-1.58,6.02-2.59,9.74-2.59c9.02,0,11.22,6.17,11.22,12.08v11.04c0,2.52,0.12,5.03,0.45,7.06H650.6z M649.76,808.66
		c-5.81-0.12-12.45,0.92-12.45,6.63c0,3.52,2.32,5.14,5.01,5.14c3.88,0,6.33-2.45,7.19-4.94c0.19-0.57,0.25-1.18,0.25-1.69V808.66z"
		/>
	<path class="st3" d="M662.88,818.26c1.62,1.01,4.44,2.1,7.11,2.1c3.92,0,5.73-1.93,5.73-4.39c0-2.58-1.56-3.93-5.48-5.4
		c-5.33-1.93-7.85-4.83-7.84-8.37c0-4.75,3.86-8.65,10.21-8.65c3,0,5.59,0.81,7.23,1.82l-1.33,3.9c-1.13-0.71-3.3-1.74-6.05-1.74
		c-3.17,0-4.89,1.83-4.89,4.05c0,2.44,1.73,3.53,5.6,5.03c5.09,1.89,7.73,4.46,7.74,8.86c0,5.23-4.06,8.89-11.03,8.89
		c-3.23,0-6.21-0.84-8.29-2.06L662.88,818.26z"/>
	<path class="st3" d="M708.83,822.65c-1.41,0.69-4.49,1.71-8.46,1.71c-8.9,0-14.72-6.05-14.72-15.07c0-9.09,6.2-15.73,15.85-15.73
		c3.16,0,6.01,0.8,7.46,1.57l-1.19,4.12c-1.31-0.7-3.32-1.42-6.27-1.42c-6.73,0-10.42,5.04-10.41,11.17
		c0,6.84,4.39,11.04,10.28,11.04c3.01,0,5.05-0.76,6.57-1.42L708.83,822.65z"/>
	<path class="st3" d="M715.11,803.41c0-3.48-0.09-6.45-0.24-9.19h4.7l0.2,5.79h0.19c1.38-3.96,4.63-6.46,8.21-6.46
		c0.58,0,1,0.04,1.49,0.15v5.05c-0.55-0.11-1.09-0.16-1.83-0.16c-3.78,0-6.45,2.85-7.18,6.86c-0.14,0.75-0.22,1.63-0.22,2.5v15.76
		h-5.34V803.41z"/>
	<path class="st3" d="M741.31,785.88c0,1.83-1.28,3.33-3.41,3.33c-1.94,0-3.24-1.51-3.24-3.33c0-1.84,1.37-3.34,3.34-3.34
		C740,782.54,741.3,784,741.31,785.88z M735.32,823.72v-29.5h5.34v29.5H735.32z"/>
	<path class="st3" d="M749.58,803.83c0-3.76-0.1-6.83-0.24-9.61h4.79l0.3,5.03h0.12c2.15-3.6,5.68-5.7,10.47-5.7
		c7.14,0,12.52,6.02,12.52,14.97c0,10.63-6.5,15.87-13.42,15.87c-3.94,0-7.33-1.72-9.09-4.65h-0.12v16.06h-5.33V803.83z
		 M754.91,811.71c0,0.76,0.08,1.49,0.23,2.18c0.96,3.75,4.22,6.29,8.02,6.29c5.69,0,8.97-4.67,8.97-11.43
		c0-5.89-3.08-10.95-8.76-10.95c-3.65,0-7.1,2.59-8.12,6.62c-0.17,0.69-0.34,1.47-0.34,2.18V811.71z"/>
	<path class="st3" d="M790.74,785.73v8.49h7.71v4.07h-7.71v15.9c0,3.68,1.06,5.75,4.06,5.75c1.39,0,2.4-0.17,3.11-0.39l0.25,4.08
		c-1.04,0.41-2.71,0.74-4.79,0.74c-2.47,0-4.51-0.81-5.79-2.27c-1.48-1.63-2.08-4.23-2.08-7.7v-16.11h-4.57v-4.07h4.57v-7.11
		L790.74,785.73z"/>
	<path class="st3" d="M817.94,823.72v-25.44h-4.12v-4.07h4.12v-1.42c0-4.16,0.96-7.93,3.43-10.34c2.01-1.94,4.71-2.72,7.17-2.72
		c1.95,0,3.55,0.41,4.58,0.86l-0.71,4.12c-0.82-0.36-1.87-0.67-3.45-0.67c-4.53,0-5.72,4.02-5.72,8.57v1.6h7.13v4.07h-7.1v25.44
		H817.94z"/>
	<path class="st3" d="M835.22,803.41c0-3.48-0.09-6.45-0.24-9.19h4.7l0.2,5.79h0.19c1.38-3.96,4.63-6.46,8.21-6.46
		c0.58,0,1,0.04,1.49,0.15v5.05c-0.55-0.11-1.09-0.16-1.83-0.16c-3.78,0-6.45,2.85-7.18,6.86c-0.14,0.75-0.22,1.63-0.22,2.5v15.76
		h-5.34V803.41z"/>
	<path class="st3" d="M871.23,823.72l-0.47-3.73h-0.16c-1.62,2.3-4.8,4.4-9.03,4.4c-5.96,0-9.01-4.23-9.01-8.47
		c0-7.15,6.33-11.07,17.73-10.99v-0.63c0-2.4-0.67-6.84-6.72-6.81c-2.75,0-5.62,0.82-7.69,2.2l-1.22-3.57
		c2.44-1.58,6.02-2.59,9.74-2.59c9.02,0,11.22,6.17,11.22,12.08v11.04c0,2.52,0.12,5.03,0.45,7.06H871.23z M870.4,808.66
		c-5.81-0.12-12.45,0.92-12.45,6.63c0,3.52,2.32,5.14,5.01,5.14c3.88,0,6.33-2.45,7.19-4.94c0.19-0.57,0.25-1.18,0.25-1.69V808.66z"
		/>
	<path class="st3" d="M884.27,802.19c0-3.08-0.1-5.52-0.24-7.97h4.66l0.28,4.75h0.15c1.64-2.81,4.39-5.42,9.31-5.42
		c4,0,7.05,2.44,8.32,5.92h0.12c0.94-1.68,2.11-2.95,3.33-3.84c1.79-1.34,3.71-2.07,6.49-2.07c3.94,0,9.74,2.54,9.74,12.8v17.37
		h-5.24v-16.69c0-5.71-2.11-9.1-6.4-9.1c-3.08,0-5.44,2.24-6.38,4.83c-0.26,0.78-0.44,1.74-0.44,2.69v18.26h-5.24v-17.71
		c0-4.7-2.08-8.08-6.13-8.08c-3.34,0-5.8,2.67-6.69,5.36c-0.26,0.79-0.41,1.72-0.41,2.64v17.79h-5.24V802.19z"/>
	<path class="st3" d="M938.15,809.94c0.11,7.25,4.71,10.24,10.1,10.24c3.84,0,6.19-0.69,8.17-1.51l0.94,3.81
		c-1.88,0.86-5.16,1.88-9.84,1.88c-9.07,0-14.52-6.04-14.52-14.89c0-8.94,5.27-15.92,13.88-15.92c9.63,0,12.14,8.45,12.14,13.88
		c0,1.13-0.06,1.93-0.18,2.52H938.15z M953.85,806.08c0.05-3.38-1.38-8.69-7.4-8.69c-5.48,0-7.81,4.95-8.24,8.69H953.85z"/>
	<path class="st3" d="M967.81,794.22l3.96,14.97c0.85,3.29,1.6,6.38,2.19,9.42h0.15c0.66-2.97,1.63-6.18,2.64-9.37l4.82-15.02h4.51
		l4.59,14.76c1.05,3.5,1.92,6.63,2.61,9.63h0.14c0.54-2.99,1.33-6.1,2.29-9.58l4.21-14.8h5.29l-9.53,29.5h-4.88l-4.48-14.08
		c-1.07-3.31-1.9-6.26-2.62-9.73h-0.12c-0.75,3.56-1.66,6.62-2.7,9.77l-4.74,14.03h-4.91l-8.89-29.5H967.81z"/>
	<path class="st3" d="M1036.7,808.69c0,10.93-7.58,15.71-14.67,15.71c-8,0-14.18-5.83-14.18-15.2c0-9.87,6.49-15.65,14.65-15.65
		C1030.98,793.55,1036.7,799.7,1036.7,808.69z M1013.31,809.03c0,6.47,3.71,11.34,8.94,11.34c5.14,0,8.99-4.81,8.99-11.5
		c0-4.99-2.52-11.3-8.89-11.3C1016.04,797.57,1013.31,803.44,1013.31,809.03z"/>
	<path class="st3" d="M1043.47,803.41c0-3.48-0.09-6.45-0.24-9.19h4.7l0.2,5.79h0.19c1.38-3.96,4.63-6.46,8.21-6.46
		c0.58,0,1,0.04,1.49,0.15v5.05c-0.55-0.11-1.09-0.16-1.83-0.16c-3.78,0-6.45,2.85-7.18,6.86c-0.14,0.75-0.22,1.63-0.22,2.5v15.76
		h-5.34V803.41z"/>
	<path class="st3" d="M1069,807.75h0.12c0.72-1.04,1.73-2.34,2.58-3.36l8.7-10.17h6.44l-11.39,12.13l12.99,17.37h-6.54l-10.15-14.18
		l-2.75,3.07v11.11h-5.33v-43.31h5.33V807.75z"/>
</g>
</svg>
