<?xml version="1.0" encoding="utf-8"?>
<!-- Generator: Adobe Illustrator 24.0.1, SVG Export Plug-In . SVG Version: 6.00 Build 0)  -->
<svg version="1.1" id="Layer_1" xmlns="http://www.w3.org/2000/svg" xmlns:xlink="http://www.w3.org/1999/xlink" x="0px" y="0px"
	 viewBox="0 0 1200 1200" style="enable-background:new 0 0 1200 1200;" xml:space="preserve">
<style type="text/css">
	.st0{fill:#FFE6C7;}
	.st1{fill:url(#SVGID_1_);}
</style>
<g id="XMLID_1_">
	<path class="st0" d="M841.04,405.01c-0.37,0.72-0.78,1.44-1.2,2.16c-29.76,52.46-77.5,93.59-134.95,115.21
		c-2.97,0.97-5.91,2.02-8.83,3.09c-0.32,0.12-0.62,0.23-0.93,0.35c-98.36,37.04-168.26,131.25-168.26,241.61
		c0,142.7,116.84,258.38,260.97,258.38c51.33,0,99.2-14.67,139.56-40c-124.02,99.36-282.7,123.12-401.98,63.22
		c-130.84-65.71-168.66-209.13-175.38-236.68c-1.94-9.72-36.81-199.06,97.16-314.54c3.51-3.03,7.04-5.94,10.61-8.7
		c63.82-49.84,133.66-60.19,165.52-62.92c0,0,34.29,3.03,74.47-7.68c26.55-7.06,55.67-20.12,79.17-44.03
		c9.29-9.43,17.69-20.55,24.71-33.68c13.82-25.8,22.3-59.34,21.55-102.84c-1.13-66.33-22.2-112.28-50.29-144.11
		c-49.98-56.68-122.18-68.58-143.48-70.93c57.99,3.76,110.77,26.26,152.29,61.44c55.93,47.4,91.38,117.79,91.38,196.39
		C873.15,325.8,861.52,368.15,841.04,405.01z"/>
	<linearGradient id="SVGID_1_" gradientUnits="userSpaceOnUse" x1="190.7368" y1="600.3075" x2="1009.6044" y2="600.3075">
		<stop  offset="0" style="stop-color:#FFF9EE"/>
		<stop  offset="0" style="stop-color:#FEF4E1"/>
		<stop  offset="0" style="stop-color:#FFF8EC"/>
		<stop  offset="0.236" style="stop-color:#FEF1D9"/>
		<stop  offset="1" style="stop-color:#FDEAC6"/>
	</linearGradient>
	<path class="st1" d="M762.55,240.06c7.06-17.98,10.95-37.53,10.95-57.96c0-26.98-6.76-52.4-18.7-74.67
		c-25.42-47.53-74.39-80.83-131.52-84.66l0.02-0.15c2.08,0.08,4.14,0.18,6.18,0.32c21.3,2.34,93.49,14.25,143.48,70.93
		c28.09,31.83,49.15,77.78,50.29,144.11c0.74,43.5-7.74,77.03-21.55,102.84c-7.03,13.13-15.42,24.25-24.71,33.68
		c-23.5,23.92-52.62,36.98-79.17,44.03c-40.18,10.7-74.47,7.68-74.47,7.68c-31.86,2.73-101.7,13.08-165.52,62.92
		c-3.56,2.76-7.09,5.67-10.61,8.7c-133.97,115.48-99.1,304.83-97.16,314.54c6.72,27.54,44.54,170.97,175.38,236.68
		c119.29,59.9,277.97,36.14,401.98-63.22c33.24-20.87,61.38-48.97,82.19-82.06v0.13C950.35,1063.86,795.15,1178,613.03,1178
		c-233.22,0-422.29-187.17-422.29-418.1c0-147.74,77.4-277.58,194.24-351.95c64.22-40.86,140.33-64.97,222.06-66.09
		c1.71-0.03,3.43-0.05,5.15-0.05C680.63,341.81,739.1,299.61,762.55,240.06z"/>
</g>
</svg>
