<?xml version="1.0" encoding="utf-8"?>
<!-- Generator: Adobe Illustrator 24.0.1, SVG Export Plug-In . SVG Version: 6.00 Build 0)  -->
<svg version="1.1" id="Layer_1" xmlns="http://www.w3.org/2000/svg" xmlns:xlink="http://www.w3.org/1999/xlink" x="0px" y="0px"
	 viewBox="0 0 1200 1200" style="enable-background:new 0 0 1200 1200;" xml:space="preserve">
<style type="text/css">
	.st0{fill:url(#SVGID_1_);}
	.st1{fill:#FFE6C7;}
	.st2{fill:#754C24;}
</style>
<g id="XMLID_1_">
	<linearGradient id="SVGID_1_" gradientUnits="userSpaceOnUse" x1="94.7368" y1="600.3075" x2="913.6044" y2="600.3075">
		<stop  offset="0" style="stop-color:#FFF9EE"/>
		<stop  offset="0" style="stop-color:#FEF4E1"/>
		<stop  offset="0" style="stop-color:#FFF8EC"/>
		<stop  offset="0.236" style="stop-color:#FEF1D9"/>
		<stop  offset="1" style="stop-color:#FDEAC6"/>
	</linearGradient>
	<path class="st0" d="M705.69,340.8c13.82-25.8,22.3-59.34,21.55-102.84c-1.13-66.31-22.2-112.27-50.29-144.11
		c-49.98-56.68-122.18-68.58-143.48-70.93c-2.04-0.13-4.1-0.23-6.18-0.32l-0.02,0.15c57.13,3.83,106.1,37.13,131.52,84.66
		c11.94,22.28,18.7,47.7,18.7,74.67c0,20.44-3.89,39.99-10.95,57.96c-23.45,59.55-81.92,101.75-150.37,101.75
		c-1.72,0-3.45,0.02-5.15,0.05c-81.74,1.12-157.85,25.24-222.06,66.09C172.13,482.32,94.74,612.16,94.74,759.9
		c0,230.92,189.07,418.1,422.29,418.1c182.12,0,337.32-114.14,396.58-274.12v-0.13c-20.81,33.1-48.95,61.19-82.19,82.06
		c-124.02,99.36-282.7,123.12-401.98,63.22c-130.84-65.71-168.66-209.13-175.38-236.68c-1.94-9.72-36.81-199.06,97.16-314.54
		c3.51-3.03,7.04-5.94,10.61-8.7c63.82-49.84,133.66-60.19,165.52-62.92c0,0,34.29,3.03,74.47-7.68
		c26.55-7.06,55.67-20.12,79.17-44.03C690.26,365.05,698.66,353.93,705.69,340.8z"/>
	<path class="st1" d="M745.04,405.01c-0.37,0.72-0.78,1.44-1.2,2.16c-29.76,52.46-77.5,93.59-134.95,115.21
		c-2.96,0.99-5.91,2.02-8.83,3.09c-0.32,0.12-0.62,0.23-0.93,0.35c-98.36,37.04-168.26,131.25-168.26,241.61
		c0,142.7,116.84,258.38,260.97,258.38c51.33,0,99.2-14.67,139.56-40c-124.02,99.36-282.7,123.12-401.98,63.22
		c-130.84-65.71-168.66-209.13-175.38-236.68c-1.94-9.72-36.81-199.06,97.16-314.54c3.51-3.03,7.04-5.94,10.61-8.7
		c63.82-49.84,133.66-60.19,165.52-62.92c0,0,34.29,3.03,74.47-7.68c26.55-7.06,55.67-20.12,79.17-44.03
		c9.29-9.43,17.69-20.55,24.71-33.68c13.82-25.8,22.3-59.34,21.55-102.84c-1.13-66.31-22.2-112.27-50.29-144.11
		c-49.98-56.68-122.18-68.58-143.48-70.93c57.97,3.76,110.77,26.26,152.29,61.44c55.93,47.4,91.38,117.79,91.38,196.39
		C777.15,325.8,765.52,368.15,745.04,405.01z"/>
</g>
<g>
	<path class="st2" d="M601.57,781.54c-10.64,29.3-37.33,35.32-56.19,35.32c-20.47,0-43.95-10.03-43.95-51.17
		c0-43.75,14.25-100.54,67.63-100.54c18.66,0,34.92,7.42,34.92,26.89c0,10.64-3.81,18.46-14.05,18.46c-3.21,0-7.63-0.8-11.44-5.22
		c5.02-1.4,8.83-11.44,8.83-16.46c0-3.21-1-14.25-13.85-14.25c-24.68,0-40.54,50.97-40.54,86.69c0,26.29,4.82,37.53,26.49,37.53
		c15.45,0,30.1-6.42,37.53-19.27L601.57,781.54z"/>
	<path class="st2" d="M640.1,715.31l-2.21,10.03c7.23-5.62,15.25-10.03,23.68-10.03c9.03,0,14.45,5.22,14.45,12.84
		c0,7.02-5.22,15.65-15.05,15.65c-11.24,0-5.62-13.25-11.64-13.25s-9.23,2.21-13.85,6.42l-16.66,78.67h-28.9l21.27-100.34H640.1z"/>
	<path class="st2" d="M714.75,801.2c9.83,0,26.69-11.64,33.71-26.49h9.03c-11.44,20.67-30.7,40.94-56.59,40.94
		c-19.27,0-29.7-14.65-29.7-31.91c0-25.49,10.84-70.24,47.36-70.24c16.46,0,25.69,6.82,25.69,20.87c0,24.48-26.29,38.53-45.35,40.94
		c-0.4,3.21-0.6,6.22-0.6,8.63C698.3,797.19,706.93,801.2,714.75,801.2z M725.19,724.14c-11.24,0-20.47,22.68-24.68,41.54
		c18.46-0.2,31.51-16.05,31.71-30.3C732.21,731.17,731.21,724.14,725.19,724.14z"/>
	<path class="st2" d="M840.58,715.31l-14.45,68.23c-0.4,2.21-0.8,4.41-0.8,6.22c0,4.41,2.01,7.63,10.03,7.63
		c8.03,0,18.46-11.24,26.49-17.66h6.82c-9.23,9.23-31.91,35.92-47.56,35.92c-13.04,0-21.87-4.82-24.48-15.25
		c-6.02,8.23-15.05,16.46-27.29,16.46c-19.27,0-24.88-13.65-24.88-25.49c0-34.52,12.44-75.86,52.58-75.86
		c4.82,0,9.83,2.01,13.45,5.02l1.2-5.22H840.58z M771.55,785.95c0,12.04,6.62,14.25,11.64,14.25c4.62,0,9.03-4.42,12.84-10.03
		c0.2-2.01,0.6-4.21,1.2-6.62l11.24-53.18c-3.21-2.81-7.02-3.61-9.83-3.61C783.59,726.75,771.55,758.66,771.55,785.95z"/>
	<path class="st2" d="M977.85,783.54c-0.6,2.41-1,5.02-1,7.42c0,4.62,1.81,8.23,8.23,8.23c8.03,0,16.46-11.84,21.07-20.47h9.43
		c-9.23,10.84-27.29,36.92-42.94,36.92c-15.65,0-24.88-6.82-24.88-21.87c0-3.21,0.4-6.42,1.21-10.24l7.63-36.12
		c0.4-1.81,0.6-3.61,0.6-5.22c0-7.23-3.81-11.84-9.23-11.84c-4.41,0-7.83,1.2-11.64,3.61c0.6,2.41,1,4.62,1,7.02
		c0,1.4-0.2,2.81-0.4,4.21l-14.85,70.44h-29.1l14.45-68.23c0.4-1.81,0.6-3.61,0.6-5.22c0-7.23-3.81-11.84-9.23-11.84
		c-4.82,0-8.23,1.4-12.24,4.22l-17.26,81.07h-28.9l21.27-100.34h28.9l-2.21,10.64c8.03-5.82,17.26-10.64,25.89-10.64
		c7.43,0,15.45,5.42,19.87,13.24c8.83-7.02,19.47-13.24,29.3-13.24c11.04,0,23.08,11.64,23.08,25.29c0,1.61-0.2,3.01-0.4,4.62
		L977.85,783.54z"/>
	<path class="st2" d="M1040.06,715.31l-14.45,68.23c-0.4,2.21-0.8,4.41-0.8,6.22c0,4.41,2.01,7.63,10.03,7.63
		s18.46-11.24,26.49-17.66h6.82c-9.23,9.23-31.91,35.92-47.56,35.92c-15.45,0-25.08-6.82-25.08-21.87c0-3.01,0.4-6.42,1.2-10.24
		l14.45-68.23H1040.06z M1030.83,672.77c8.83,0,16.05,7.23,16.05,16.05s-7.23,15.85-16.05,15.85c-8.83,0-15.85-7.02-15.85-15.85
		S1022,672.77,1030.83,672.77z"/>
	<path class="st2" d="M1047.09,783.74c0-25.49,10.84-70.24,47.36-70.24c16.46,0,25.69,6.82,25.69,20.87
		c0,24.48-26.29,38.53-45.35,40.94c-0.4,3.21-0.6,6.22-0.6,8.63c0,13.24,6.62,17.26,14.45,17.26c9.43,0,17.46-5.42,25.69-12.84
		c0,21.67-17.46,27.29-37.53,27.29C1057.52,815.65,1047.09,801,1047.09,783.74z M1101.07,724.14c-11.24,0-20.47,22.68-24.68,41.54
		c18.46-0.2,31.51-16.05,31.71-30.3C1108.09,731.17,1107.09,724.14,1101.07,724.14z"/>
</g>
</svg>
